<svg id="Layer_5" data-name="Layer 5" xmlns="http://www.w3.org/2000/svg" viewBox="0 0 675.815 146.845">
  <defs>
    <style>
      .cls-1 {
        fill: #fff;
      }
    </style>
  </defs>
  <title>Premier logo (white)</title>
  <g>
    <path class="cls-1" d="M275.933,883.82l-34.755-56.492a11.048,11.048,0,0,0-.768-1.092,26.527,26.527,0,0,0-47.261,16.715v31.033a4.667,4.667,0,0,1-9.334,0V811.833c0-.155.006-.311,0-.467l0-.154a4.673,4.673,0,0,1,4.666-4.568h62.574a26.558,26.558,0,1,0,0-53.115H174.691a10.861,10.861,0,0,0,0,21.722h76.365a4.836,4.836,0,0,1,0,9.671H188.482c-.188,0-.375,0-.56.014a26.415,26.415,0,0,0-25.83,26.375v62.673a26.39,26.39,0,0,0,52.779,0V842.951a4.911,4.911,0,0,1,4.835-4.973,4.751,4.751,0,0,1,3.419,1.462L257.432,895.2a10.861,10.861,0,1,0,18.5-11.383Z" transform="translate(-162.092 -753.529)"/>
    <g>
      <path class="cls-1" d="M323.055,869.643a2.912,2.912,0,0,1-2.927-2.928V787.31a2.97,2.97,0,0,1,.853-2.2,2.827,2.827,0,0,1,2.074-.854h32.689a42.43,42.43,0,0,1,16.589,2.988,23.681,23.681,0,0,1,10.978,9.027q3.9,6.038,3.9,15.063,0,9.15-3.9,15.065a23.558,23.558,0,0,1-10.978,8.843,43.18,43.18,0,0,1-16.589,2.927H337.57v28.542a2.939,2.939,0,0,1-.793,2.075,2.775,2.775,0,0,1-2.134.853Zm14.271-45.009h17.809q7.073,0,10.856-3.354t3.781-9.942a13.664,13.664,0,0,0-3.538-9.818q-3.538-3.72-11.1-3.721H337.326Z" transform="translate(-162.092 -753.529)"/>
      <path class="cls-1" d="M403.436,869.643a2.914,2.914,0,0,1-2.927-2.928V787.31a2.97,2.97,0,0,1,.854-2.2,2.823,2.823,0,0,1,2.073-.854h31.592q14.757,0,23.3,6.831t8.539,19.882q0,9.029-4.452,15a25.026,25.026,0,0,1-11.892,8.66l17.806,31.1a3.027,3.027,0,0,1,.368,1.341,2.4,2.4,0,0,1-.793,1.831,2.554,2.554,0,0,1-1.77.731h-11.1a4.294,4.294,0,0,1-3.172-1.1,10.089,10.089,0,0,1-1.707-2.195l-15.735-28.908H417.464v29.273a2.939,2.939,0,0,1-.793,2.075,2.776,2.776,0,0,1-2.135.853Zm14.028-45.984h17.2q7.439,0,11.1-3.355t3.658-9.453q0-6.1-3.6-9.575T434.662,797.8h-17.2Z" transform="translate(-162.092 -753.529)"/>
      <path class="cls-1" d="M485.525,869.643a2.914,2.914,0,0,1-2.928-2.928V787.31a2.97,2.97,0,0,1,.854-2.2,2.826,2.826,0,0,1,2.074-.854h53.669a2.924,2.924,0,0,1,3.049,3.05v8.05a2.829,2.829,0,0,1-.853,2.074,2.976,2.976,0,0,1-2.2.854h-40.13v21.589H536.51a3.1,3.1,0,0,1,2.2.793,2.779,2.779,0,0,1,.854,2.134v7.563a2.771,2.771,0,0,1-.854,2.134,3.09,3.09,0,0,1-2.2.793H499.064v22.322h41.1a2.924,2.924,0,0,1,3.05,3.049v8.05a2.831,2.831,0,0,1-.853,2.075,2.978,2.978,0,0,1-2.2.853Z" transform="translate(-162.092 -753.529)"/>
      <path class="cls-1" d="M561.514,869.643a2.965,2.965,0,0,1-2.2-.853,2.817,2.817,0,0,1-.855-2.075V787.31a2.927,2.927,0,0,1,3.05-3.05h9.636a3.34,3.34,0,0,1,2.561.915,7.079,7.079,0,0,1,1.1,1.4l23.542,43.911,23.785-43.911a6.964,6.964,0,0,1,1.1-1.4,3.334,3.334,0,0,1,2.561-.915h9.514a2.927,2.927,0,0,1,3.05,3.05v79.405a2.825,2.825,0,0,1-.855,2.075,2.973,2.973,0,0,1-2.2.853H625.063a2.766,2.766,0,0,1-2.134-.853,2.931,2.931,0,0,1-.793-2.075V813.9l-17.077,32.567a6.445,6.445,0,0,1-1.585,1.891,3.934,3.934,0,0,1-2.562.793h-5a3.881,3.881,0,0,1-2.623-.793,6.9,6.9,0,0,1-1.524-1.891L574.687,813.9v52.815a2.914,2.914,0,0,1-2.927,2.928Z" transform="translate(-162.092 -753.529)"/>
      <path class="cls-1" d="M660.313,869.643a2.916,2.916,0,0,1-2.928-2.928V787.188a2.918,2.918,0,0,1,2.928-2.928h11.466a2.779,2.779,0,0,1,2.134.854,2.942,2.942,0,0,1,.793,2.074v79.527a2.939,2.939,0,0,1-.793,2.075,2.775,2.775,0,0,1-2.134.853Z" transform="translate(-162.092 -753.529)"/>
      <path class="cls-1" d="M696.783,869.643a2.914,2.914,0,0,1-2.927-2.928V787.31a2.97,2.97,0,0,1,.854-2.2,2.825,2.825,0,0,1,2.073-.854h53.669a2.924,2.924,0,0,1,3.05,3.05v8.05a2.829,2.829,0,0,1-.853,2.074,2.978,2.978,0,0,1-2.2.854H710.323v21.589h37.446a3.1,3.1,0,0,1,2.2.793,2.779,2.779,0,0,1,.854,2.134v7.563a2.771,2.771,0,0,1-.854,2.134,3.091,3.091,0,0,1-2.2.793H710.323v22.322h41.105a2.925,2.925,0,0,1,3.05,3.049v8.05a2.828,2.828,0,0,1-.854,2.075,2.974,2.974,0,0,1-2.2.853Z" transform="translate(-162.092 -753.529)"/>
      <path class="cls-1" d="M772.651,869.643a2.914,2.914,0,0,1-2.928-2.928V787.31a2.97,2.97,0,0,1,.854-2.2,2.826,2.826,0,0,1,2.074-.854h31.591q14.757,0,23.3,6.831t8.538,19.882q0,9.029-4.451,15a25.021,25.021,0,0,1-11.892,8.66l17.807,31.1a3.038,3.038,0,0,1,.367,1.341,2.393,2.393,0,0,1-.793,1.831,2.554,2.554,0,0,1-1.769.731h-11.1a4.292,4.292,0,0,1-3.171-1.1,10.1,10.1,0,0,1-1.708-2.195l-15.735-28.908H786.678v29.273a2.939,2.939,0,0,1-.793,2.075,2.775,2.775,0,0,1-2.135.853Zm14.027-45.984h17.2q7.439,0,11.1-3.355t3.659-9.453q0-6.1-3.6-9.575T803.876,797.8h-17.2Z" transform="translate(-162.092 -753.529)"/>
    </g>
  </g>
</svg>
